IKResults
version=1
nRows=13
nColumns=42
inDegrees=yes

"Units are S.I. units (second, meters, Newtons, ...)"
"If the header above contains a line with 'inDegrees', this indicates whether rotational values are in degrees (yes) or radians (no)."

endheader
time	pelvis_tilt	pelvis_list	pelvis_rotation	pelvis_tx	pelvis_ty	pelvis_tz	hip_flexion_r	hip_adduction_r	hip_rotation_r	knee_angle_r	knee_adduction_r	knee_angle_r_beta	ankle_angle_r	subtalar_angle_r	mtp_angle_r	hip_flexion_l	hip_adduction_l	hip_rotation_l	knee_angle_l	knee_adduction_l	knee_angle_l_beta	ankle_angle_l	subtalar_angle_l	mtp_angle_l	lumbar_extension	lumbar_bending	lumbar_rotation	arm_flex_r	arm_add_r	arm_rot_r	elbow_flex_r	pro_sup_r	wrist_flex_r	wrist_dev_r	arm_flex_l	arm_add_l	arm_rot_l	elbow_flex_l	pro_sup_l	wrist_flex_l	wrist_dev_l
1	-6.99972991	-1.54045628	5.26730708	1.09413776	0.93828345	0.45016469	3.14871978	-4.65294046	2.65671851	31.09832368	2.2228717	0.54276814	14.06513965	-21.32932415	-12.09302443	29.30791595	-2.59612152	-3.53625252	24.5133683	5.38393913	0.42783899	2.99715338	-14.64968955	-0.5458709	-1.78071304	1.60632371	4.24972112	30.96803458	-17.87745977	-15.57087135	110.9621826	90.00000001	0	0	-18.59194473	-6.3520921	2.82114113	16.58393536	90.00000001	0	0
1.01	-7.12997035	-1.09164901	5.23057122	1.09448836	0.93916797	0.44773553	4.46907972	-5.52282644	2.0615743	34.33550873	2.2228717	0.59926768	12.84546436	-21.04405154	-12.76304483	28.53102609	-2.0566129	-4.03759721	24.06520084	5.38393913	0.42001699	3.5194767	-14.36176452	-0.77072469	-1.65629049	1.12860001	3.92040692	29.52982699	-17.61665672	-15.69559772	111.4315351	90.00000001	0	0	-17.95939713	-6.51802218	2.83673556	17.22262529	90.00000001	0	0
1.02	-6.9645639	-0.84201136	5.38793543	1.09458071	0.94041699	0.44529532	5.47842694	-6.10847505	1.41837318	37.47631928	2.2228717	0.65408516	11.26226296	-21.18234668	-12.62938965	27.53389287	-1.68235223	-4.31225037	23.70961863	5.38393913	0.41381091	4.07087461	-13.94075959	-1.0638314	-1.91525623	0.89347364	3.32314896	28.22391641	-17.4464995	-15.63698393	111.6298016	90.00000001	0	0	-17.17153008	-6.68666514	2.80455883	17.89262066	90.00000001	0	0
1.03	-7.26367308	-0.22870777	5.07990476	1.09497266	0.94114571	0.44395201	7.3114497	-7.04217198	1.46969168	41.10303697	2.2228717	0.71738333	9.94867628	-21.39980352	-12.34872321	26.78321298	-1.18535348	-5.34853833	23.07523656	5.38393913	0.40273885	4.6002386	-13.11960169	-1.41166097	-1.61492131	0.11594135	3.28467741	26.39802518	-16.98986634	-15.89463038	111.8493223	90.00000001	0	0	-16.58780162	-7.10691191	2.77678133	19.1330931	90.00000001	0	0
1.04	-6.92210412	-0.17198804	5.31923809	1.094424	0.94258535	0.4413593	8.36591462	-7.42880473	0.9864637	44.42454189	2.2228717	0.77535452	8.42800269	-21.71261993	-11.66583904	25.67920708	-0.96802579	-5.3676479	22.70845993	5.38393913	0.39633739	5.07856367	-12.72767364	-1.65976867	-2.13759834	0.16590742	2.59279602	25.04218706	-16.81253663	-15.85638103	111.7515299	90.00000001	0	0	-15.54598744	-7.24046785	2.78521029	19.86419731	90.00000001	0	0
1.05	-7.34895681	0.35317478	5.02670352	1.09405816	0.94283706	0.44039461	10.65025007	-8.17045689	1.30445575	48.34777315	2.2228717	0.84382783	8.90538693	-21.2628845	-3.99783147	25.31896595	-0.53569526	-6.19139408	22.40827529	5.38393913	0.39109818	5.61826472	-12.0219846	-1.80040078	-1.78063195	-0.53343345	2.55099805	23.03563924	-16.39313242	-15.97413649	111.7362154	90.00000001	0	0	-15.18723512	-8.20068773	5.15231941	22.15935787	90.00000001	0	0
1.06	-7.21492644	0.65460122	5.0213058	1.09342635	0.94378524	0.43874978	12.13999059	-8.70654509	1.29655223	51.67264111	2.2228717	0.90185772	7.08135387	-22.0959217	-2.05432639	24.41523829	-0.14621558	-6.21214676	22.00496984	5.38393913	0.38405918	5.95688278	-11.97539793	-1.9305879	-2.10642404	-0.86836954	2.12160761	21.36146059	-16.06076842	-16.00241226	111.3506176	90.00000001	0	0	-14.17856243	-8.59509015	5.10694349	23.39750078	90.00000001	0	0
1.07	-7.06741284	0.86528717	5.04033496	1.09252779	0.9446447	0.43718884	13.65979091	-9.11693611	1.33975336	54.89507442	2.2228717	0.95809979	6.16561139	-22.53167538	-0.7026105	23.5829757	0.16302557	-6.1125352	21.71431109	5.38393913	0.37898622	6.28665581	-11.92823691	-2.07897677	-2.46651354	-1.08068368	1.68414895	19.629029	-15.64951061	-16.02990004	110.7855522	90.00000001	0	0	-13.02815357	-9.00480675	4.99322467	24.59527995	90.00000001	0	0
1.08	-6.93899076	1.02873079	4.97494587	1.09167153	0.94544983	0.43586629	15.22831448	-9.42144425	1.55546836	57.9903069	2.2228717	1.01212179	6.43191812	-22.25185154	0.13004538	22.77634441	0.3654966	-6.13089871	21.45652941	5.38393913	0.37448708	6.63986123	-11.78194143	-2.21653745	-2.76781232	-1.23945381	1.33373545	17.87702748	-15.19637512	-16.16770518	109.9075437	90.00000001	0	0	-11.85093004	-9.41961984	4.90006652	25.82954629	90.00000001	0	0
1.09	-6.78577448	1.23549972	4.84910207	1.09049561	0.94622164	0.43460351	16.85413698	-9.76782846	1.8548678	60.93692204	2.2228717	1.06354993	6.76625034	-21.81629582	0.57933853	21.9269749	0.5889534	-6.26129225	21.14415056	5.38393913	0.36903504	7.01206117	-11.6382393	-2.32219491	-3.14673056	-1.44109952	1.05364489	16.1546497	-14.74592996	-16.21986838	108.7149541	90.00000001	0	0	-10.4797332	-9.86973258	4.84359419	26.95860906	90.00000001	0	0
1.1	-6.63039993	1.40903358	4.80629876	1.08945892	0.94699662	0.43332235	18.42604977	-10.09069173	2.08618873	63.59025909	2.2228717	1.10985939	6.88602565	-21.46177631	1.09507625	21.05665701	0.80144511	-6.39072915	20.79323346	5.38393913	0.36291039	7.35144321	-11.36962435	-2.428547	-3.47968793	-1.6028164	0.72344472	14.34012494	-14.26269831	-16.35630737	107.2506593	90.00000001	0	0	-9.07047331	-10.33482961	4.88512524	28.07537343	90.00000001	0	0
1.11	-6.40614174	1.5280052	4.87344567	1.08829145	0.94790438	0.43227779	19.86210578	-10.30821665	2.17268102	65.84776971	2.2228717	1.14926039	6.3602643	-21.63222532	1.0924511	20.12263215	0.95268776	-6.44807729	20.42607528	5.38393913	0.35650227	7.69940198	-11.00627856	-2.53710528	-3.89894467	-1.72217771	0.24716115	12.63282627	-13.76011636	-16.38597902	105.4370393	90.00000001	0	0	-7.49784161	-10.85412458	4.91498249	28.99151277	90.00000001	0	0
1.12	-6.13495988	1.45237227	4.9077751	1.08707915	0.94891619	0.43076275	21.20952896	-10.37447696	2.21293305	67.74220309	2.2228717	1.18232449	5.90378905	-21.70280581	0.96614432	19.17176593	0.94737443	-6.30644366	20.08784564	5.38393913	0.35059905	8.01485794	-10.85132702	-2.64411248	-4.33478319	-1.52652264	-0.04402286	10.87521912	-13.46748724	-16.38108609	103.4241439	90.00000001	0	0	-5.75578291	-11.18539755	4.84130134	29.82991084	90.00000001	0	0
